<svg width="25" height="24" viewBox="0 0 25 24" fill="none" xmlns="http://www.w3.org/2000/svg">
<path fill-rule="evenodd" clip-rule="evenodd" d="M23.25 12.0633C23.25 6.26484 18.5484 1.56328 12.75 1.56328C6.95156 1.56328 2.25 6.26484 2.25 12.0633C2.25 17.3039 6.08906 21.6478 11.1094 22.4362V15.0994H8.44266V12.0633H11.1094V9.75C11.1094 7.1189 12.6773 5.66437 15.0755 5.66437C16.2244 5.66437 17.4263 5.86968 17.4263 5.86968V8.4539H16.1016C14.798 8.4539 14.3902 9.26297 14.3902 10.0945V12.0633H17.302L16.837 15.0994H14.3906V22.4372C19.4109 21.6492 23.25 17.3053 23.25 12.0633V12.0633Z" fill="black"/>
</svg>
