<svg width="25" height="24" viewBox="0 0 25 24" fill="none" xmlns="http://www.w3.org/2000/svg">
<path fill-rule="evenodd" clip-rule="evenodd" d="M20.2148 4.53517C19.3951 3.71539 18.2842 3.25331 17.1248 3.24984H8.37516C7.21582 3.25331 6.10495 3.71539 5.28517 4.53517C4.46539 5.35495 4.00331 6.46582 3.99984 7.62516V16.3748C4.00331 17.5342 4.46539 18.6451 5.28517 19.4648C6.10495 20.2846 7.21582 20.7467 8.37516 20.7502H17.1248C18.2842 20.7467 19.3951 20.2846 20.2148 19.4648C21.0346 18.6451 21.4967 17.5342 21.5002 16.3748V7.62516C21.4967 6.46582 21.0346 5.35495 20.2148 4.53517ZM8.37516 1.5H17.1248C20.4937 1.5 23.25 4.25625 23.25 7.62516V16.3748C23.25 19.7437 20.4937 22.5 17.1248 22.5H8.37516C5.00625 22.5 2.25 19.7437 2.25 16.3748V7.62516C2.25 4.25625 5.00625 1.5 8.37516 1.5ZM17.7082 7.40396C17.924 7.54818 18.1778 7.62515 18.4373 7.62515C18.6098 7.62552 18.7806 7.59183 18.9401 7.526C19.0995 7.46017 19.2443 7.36351 19.3663 7.24156C19.4882 7.11961 19.5849 6.97477 19.6507 6.81536C19.7165 6.65596 19.7502 6.48512 19.7498 6.31265C19.7498 6.05306 19.6729 5.79931 19.5286 5.58347C19.3844 5.36763 19.1794 5.1994 18.9396 5.10006C18.6998 5.00072 18.4359 4.97473 18.1813 5.02537C17.9267 5.07602 17.6928 5.20102 17.5093 5.38458C17.3257 5.56813 17.2007 5.802 17.1501 6.0566C17.0994 6.3112 17.1254 6.5751 17.2248 6.81492C17.3241 7.05475 17.4923 7.25974 17.7082 7.40396ZM14.6946 9.08972C14.119 8.70512 13.4423 8.49984 12.75 8.49984C11.822 8.50083 10.9323 8.86992 10.2761 9.52611C9.61992 10.1823 9.25084 11.072 9.24985 12C9.24985 12.6923 9.45513 13.369 9.83973 13.9446C10.2243 14.5202 10.771 14.9688 11.4106 15.2337C12.0501 15.4986 12.7539 15.568 13.4328 15.4329C14.1118 15.2978 14.7355 14.9645 15.225 14.475C15.7145 13.9855 16.0478 13.3618 16.1829 12.6828C16.318 12.0039 16.2486 11.3001 15.9837 10.6605C15.7188 10.021 15.2702 9.47433 14.6946 9.08972ZM9.83326 7.63478C10.6966 7.0579 11.7116 6.75 12.75 6.75C14.1424 6.75 15.4777 7.30312 16.4623 8.28769C17.4469 9.27225 18 10.6076 18 12C18 13.0383 17.6921 14.0534 17.1152 14.9167C16.5383 15.7801 15.7184 16.453 14.7591 16.8504C13.7998 17.2477 12.7442 17.3517 11.7258 17.1491C10.7074 16.9465 9.77192 16.4465 9.03769 15.7123C8.30347 14.9781 7.80345 14.0426 7.60088 13.0242C7.39831 12.0058 7.50227 10.9502 7.89963 9.99091C8.29699 9.0316 8.9699 8.21166 9.83326 7.63478Z" fill="black"/>
</svg>
