<svg width="25" height="24" viewBox="0 0 25 24" fill="none" xmlns="http://www.w3.org/2000/svg">
<path d="M24.5925 6.97453C24.5925 4.86516 23.041 3.16828 21.1238 3.16828C18.5269 3.04687 15.8785 3 13.1719 3H12.3282C9.62817 3 6.97504 3.04687 4.37817 3.16875C2.46567 3.16875 0.914103 4.875 0.914103 6.98437C0.796916 8.65266 0.747228 10.3214 0.750041 11.9902C0.745353 13.6589 0.798478 15.3292 0.909416 17.0011C0.909416 19.1105 2.46098 20.8214 4.37348 20.8214C7.1016 20.948 9.90004 21.0042 12.7454 20.9995C15.5954 21.0089 18.386 20.9495 21.1172 20.8214C23.0344 20.8214 24.586 19.1105 24.586 17.0011C24.6985 15.3277 24.75 13.6589 24.7454 11.9855C24.756 10.3167 24.705 8.64641 24.5925 6.97453ZM10.4532 16.5886V7.37766L17.25 11.9808L10.4532 16.5886Z" fill="black"/>
</svg>
